<svg xmlns="http://www.w3.org/2000/svg" viewBox="0 0 64 64" role="img" aria-label="How Much Music favicon">
  <defs>
    <linearGradient id="bg" x1="0%" y1="0%" x2="100%" y2="100%">
      <stop offset="0%" stop-color="#1e6a61" />
      <stop offset="100%" stop-color="#8b5e3c" />
    </linearGradient>
  </defs>
  <rect width="64" height="64" rx="14" fill="url(#bg)" />
  <circle cx="20" cy="20" r="4" fill="#f7f3eb" opacity="0.9" />
  <path
    d="M18 46V22.5c0-1.4 1.1-2.5 2.5-2.5h20c1.4 0 2.5 1.1 2.5 2.5V41c0 3.9-3.1 7-7 7s-7-3.1-7-7 3.1-7 7-7c1.3 0 2.5.3 3.5.9V26H22v20c0 3.3-2.7 6-6 6s-6-2.7-6-6 2.7-6 6-6c0.7 0 1.4.1 2 .4Z"
    fill="#f7f3eb"
  />
</svg>
